# xmcd
#
# Track frame offsets: 
#        150
#        11285
#        27470
#        39327
#        59427
#        73280
#        88308
#        99550
#        136583
#
# Disc length: 1975 seconds
#
# Revision: 0
# Processed by: cddbd v1.5.2PL0 Copyright (c) Steve Scherf et al.
# Submitted via: ExactAudioCopy v0.99pb5
#
DISCID=7407b509
DTITLE=The NC Heaters - Ruff Stuff
DYEAR=1994
DGENRE=Blues
TTITLE0=Ruff Stuff
TTITLE1=Mean Old Man
TTITLE2=At The Levee
TTITLE3=Wall Of Shame
TTITLE4=I'm Hip
TTITLE5=Good Boy
TTITLE6=Won't Be Too Soon
TTITLE7=Have You Changed Your Mind (Part 3)
TTITLE8=Ten Dollar Thrill
EXTD=
EXTT0=
EXTT1=
EXTT2=
EXTT3=
EXTT4=
EXTT5=
EXTT6=
EXTT7=
EXTT8=
PLAYORDER=
